<?xml version="1.0" standalone="no"?>
 <!DOCTYPE svg PUBLIC "-//W3C//DTD SVG 1.1//EN" 
 "http://www.w3.org/Graphics/SVG/1.1/DTD/svg11.dtd"> 
<svg
  xmlns:svg="http://www.w3.org/2000/svg"
  xmlns="http://www.w3.org/2000/svg"
  xmlns:xlink="http://www.w3.org/1999/xlink"
  version="1.1"
  width="29.700220cm" height="21.000720cm" viewBox="0 0 297002200 210007200">
<title>SVG Picture created as clog-v2-F_Cu.svg date 2022/10/27 05:59:42 </title>
  <desc>Picture generated by PCBNEW </desc>
<g style="fill:#000000; fill-opacity:1.000000;stroke:#000000; stroke-opacity:1.000000;
stroke-linecap:round; stroke-linejoin:round;"
 transform="translate(0 0) scale(1 1)">
</g>
<g style="fill:#000000; fill-opacity:0.0; 
stroke:#000000; stroke-width:0.000000; stroke-opacity:1; 
stroke-linecap:round; stroke-linejoin:round;">
<g >
</g>
<g >
</g>
<g >
</g>
<g style="fill:#000000; fill-opacity:0.0; 
stroke:#000000; stroke-width:0.000000; stroke-opacity:1; 
stroke-linecap:round; stroke-linejoin:round;">
<g >
</g>
<g style="fill:#000000; fill-opacity:1.0; 
stroke:#000000; stroke-width:1.000000; stroke-opacity:1; 
stroke-linecap:round; stroke-linejoin:round;">
<path style="fill:#000000; fill-opacity:1.0; 
stroke:#000000; stroke-width:1.000000; stroke-opacity:1; 
stroke-linecap:round; stroke-linejoin:round;fill-rule:evenodd;"
d="M 154752878.000000,50423679.000000
167948792.000000,50435088.000000
167968063.000000,50436587.000000
167992044.000000,50440322.000000
168000948.000000,50439158.000000
168000951.000000,50439158.000000
168007298.000000,50438328.000000
168032620.000000,50437585.000000
168201593.000000,50449672.000000
168219383.000000,50452231.000000
168409712.000000,50493637.000000
168426955.000000,50498700.000000
168427904.000000,50499054.000000
168609452.000000,50566771.000000
168625805.000000,50574239.000000
168700131.000000,50614825.000000
168796766.000000,50667594.000000
168811874.000000,50677304.000000
168967805.000000,50794035.000000
168981390.000000,50805808.000000
169119122.000000,50943543.000000
169130895.000000,50957130.000000
169162501.000000,50999352.000000
169206488.000000,51058113.000000
169247613.000000,51113052.000000
169257328.000000,51128168.000000
169350685.000000,51299144.000000
169358147.000000,51315487.000000
169426211.000000,51497982.000000
169431276.000000,51515232.000000
169472676.000000,51705560.000000
169475234.000000,51723355.000000
169486568.000000,51881868.000000
169485496.000000,51904397.000000
169485993.000000,51904442.000000
169485558.000000,51909290.000000
169484751.000000,51914088.000000
169484678.000000,51920078.000000
169484636.000000,51920348.000000
169484671.000000,51920619.000000
169484598.000000,51926640.000000
169485289.000000,51931463.000000
169485500.000000,51934700.000000
169485924.000000,51938864.000000
169487161.000000,51959306.000000
169503055.000000,52222005.000000
169503512.000000,52229562.000000
169558220.000000,52528066.000000
169559353.000000,52531701.000000
169559353.000000,52531702.000000
169647374.000000,52814157.000000
169648509.000000,52817799.000000
169773064.000000,53094537.000000
169775035.000000,53097798.000000
169775037.000000,53097801.000000
169788158.000000,53119504.000000
169930068.000000,53354244.000000
170117230.000000,53593132.000000
170331823.000000,53807719.000000
170334828.000000,53810073.000000
170499285.000000,53938913.000000
170570717.000000,53994875.000000
170573962.000000,53996837.000000
170573967.000000,53996840.000000
170754723.000000,54106106.000000
170830429.000000,54151870.000000
171107170.000000,54276417.000000
171110810.000000,54277551.000000
171110812.000000,54277552.000000
171146323.000000,54288617.000000
171396906.000000,54366698.000000
171400662.000000,54367386.000000
171400665.000000,54367387.000000
171495989.000000,54384854.000000
171695411.000000,54421397.000000
171699210.000000,54421627.000000
171699212.000000,54421627.000000
171765326.000000,54425625.000000
171967499.000000,54437851.000000
171980792.000000,54439367.000000
171985782.000000,54440207.000000
171992337.000000,54440287.000000
171993475.000000,54440301.000000
171993478.000000,54440301.000000
171998334.000000,54440360.000000
172003142.000000,54439671.000000
172003148.000000,54439671.000000
172025955.000000,54436404.000000
172043819.000000,54435131.000000
185948956.000000,54435131.000000
185968344.000000,54436632.000000
185983170.000000,54438941.000000
185983177.000000,54438941.000000
185992045.000000,54440322.000000
186000948.000000,54439158.000000
186000951.000000,54439158.000000
186007744.000000,54438270.000000
186032743.000000,54437504.000000
186129019.000000,54444140.000000
186205784.000000,54449432.000000
186222946.000000,54451809.000000
186417990.000000,54492655.000000
186434663.000000,54497364.000000
186622253.000000,54564578.000000
186638123.000000,54571530.000000
186814724.000000,54663845.000000
186829491.000000,54672908.000000
186991753.000000,54788574.000000
187005136.000000,54799577.000000
187150005.000000,54936415.000000
187161747.000000,54949143.000000
187228398.000000,55032195.000000
187265659.000000,55078625.000000
187276798.000000,55094990.000000
187277628.000000,55096443.000000
187279658.000000,55100286.000000
187280177.000000,55101052.000000
187282213.000000,55105234.000000
187284101.000000,55109113.000000
187283541.000000,55109386.000000
187284488.000000,55112347.000000
187286166.000000,55111388.000000
187389115.000000,55291599.000000
187391164.000000,55294411.000000
187391170.000000,55294420.000000
187479045.000000,55415008.000000
187552845.000000,55516281.000000
187740397.000000,55721498.000000
187743018.000000,55723795.000000
187743023.000000,55723800.000000
187896624.000000,55858417.000000
187949475.000000,55904736.000000
188177518.000000,56063752.000000
188421735.000000,56196598.000000
188679134.000000,56301647.000000
188682484.000000,56302599.000000
188682488.000000,56302600.000000
188815909.000000,56340500.000000
188946564.000000,56377614.000000
189220750.000000,56423568.000000
189224230.000000,56423761.000000
189224232.000000,56423761.000000
189461432.000000,56436902.000000
189475360.000000,56438454.000000
189480985.000000,56439400.000000
189480987.000000,56439400.000000
189485783.000000,56440207.000000
189492096.000000,56440284.000000
189493476.000000,56440301.000000
189493479.000000,56440301.000000
189498335.000000,56440360.000000
189503143.000000,56439671.000000
189503149.000000,56439671.000000
189525956.000000,56436404.000000
189543820.000000,56435131.000000
203948955.000000,56435131.000000
203968343.000000,56436632.000000
203983169.000000,56438941.000000
203983176.000000,56438941.000000
203992044.000000,56440322.000000
204000948.000000,56439158.000000
204000949.000000,56439158.000000
204007298.000000,56438328.000000
204032620.000000,56437585.000000
204201593.000000,56449672.000000
204219383.000000,56452231.000000
204409712.000000,56493637.000000
204426955.000000,56498700.000000
204434950.000000,56501682.000000
204609452.000000,56566771.000000
204625805.000000,56574239.000000
204686900.000000,56607600.000000
204796766.000000,56667594.000000
204811880.000000,56677308.000000
204964113.000000,56791271.000000
204967804.000000,56794034.000000
204981391.000000,56805807.000000
205119122.000000,56943543.000000
205130890.000000,56957124.000000
205247622.000000,57113066.000000
205257323.000000,57128161.000000
205350684.000000,57299144.000000
205358146.000000,57315485.000000
205426210.000000,57497981.000000
205431275.000000,57515230.000000
205472676.000000,57705558.000000
205475234.000000,57723353.000000
205486827.000000,57885483.000000
205486119.000000,57902503.000000
205486128.000000,57902503.000000
205486018.000000,57911476.000000
205484637.000000,57920347.000000
205485801.000000,57929248.000000
205488765.000000,57951919.000000
205489828.000000,57968254.000000
205489828.000000,99873383.000000
205488082.000000,99894287.000000
205484752.000000,99914081.000000
205484599.000000,99926633.000000
205485289.000000,99931449.000000
205485606.000000,99936310.000000
205485482.000000,99936318.000000
205485870.000000,99940686.000000
205502906.000000,100439332.000000
205555369.000000,100949641.000000
205642535.000000,101455179.000000
205763997.000000,101953590.000000
205919188.000000,102442551.000000
206107386.000000,102919781.000000
206327712.000000,103383056.000000
206579140.000000,103830215.000000
206580313.000000,103832004.000000
206580314.000000,103832005.000000
206859305.000000,104257359.000000
206859313.000000,104257370.000000
206860496.000000,104259174.000000
206861807.000000,104260903.000000
206861810.000000,104260907.000000
207169168.000000,104666216.000000
207169178.000000,104666229.000000
207170470.000000,104667932.000000
207171876.000000,104669544.000000
207171887.000000,104669558.000000
207506192.000000,105052951.000000
207507616.000000,105054584.000000
207870362.000000,105417327.000000
208257016.000000,105754469.000000
208665777.000000,106064440.000000
209094738.000000,106345793.000000
209541899.000000,106597217.000000
210005176.000000,106817539.000000
210007185.000000,106818331.000000
210007196.000000,106818336.000000
210480393.000000,107004938.000000
210480398.000000,107004940.000000
210482407.000000,107005732.000000
210484465.000000,107006385.000000
210484473.000000,107006388.000000
210607946.000000,107045576.000000
210971369.000000,107160920.000000
210973441.000000,107161425.000000
210973452.000000,107161428.000000
211467705.000000,107281872.000000
211467709.000000,107281873.000000
211469782.000000,107282378.000000
211722552.000000,107325959.000000
211973208.000000,107369175.000000
211973217.000000,107369176.000000
211975321.000000,107369539.000000
211977457.000000,107369759.000000
211977460.000000,107369759.000000
212483495.000000,107421780.000000
212483509.000000,107421781.000000
212485630.000000,107421999.000000
212487757.000000,107422072.000000
212487762.000000,107422072.000000
212969034.000000,107438511.000000
212976106.000000,107439214.000000
212976128.000000,107438965.000000
212980980.000000,107439400.000000
212985777.000000,107440207.000000
212991775.000000,107440280.000000
212992044.000000,107440322.000000
212992314.000000,107440287.000000
212998329.000000,107440360.000000
213003152.000000,107439669.000000
213003157.000000,107439669.000000
213009298.000000,107438790.000000
213036150.000000,107437838.000000
213201593.000000,107449672.000000
213219383.000000,107452231.000000
213409712.000000,107493637.000000
213426955.000000,107498700.000000
213497495.000000,107525011.000000
213609452.000000,107566771.000000
213625805.000000,107574239.000000
213700131.000000,107614825.000000
213796766.000000,107667594.000000
213811880.000000,107677308.000000
213967804.000000,107794034.000000
213981389.000000,107805806.000000
214050262.000000,107874680.000000
214119122.000000,107943543.000000
214130890.000000,107957124.000000
214247622.000000,108113066.000000
214257323.000000,108128161.000000
214350684.000000,108299144.000000
214358146.000000,108315485.000000
214426210.000000,108497981.000000
214431275.000000,108515230.000000
214462746.000000,108659906.000000
214472676.000000,108705558.000000
214475234.000000,108723353.000000
214486827.000000,108885483.000000
214486119.000000,108902503.000000
214486128.000000,108902503.000000
214486018.000000,108911476.000000
214484637.000000,108920347.000000
214485801.000000,108929248.000000
214488765.000000,108951919.000000
214489828.000000,108968254.000000
214489827.000000,125877258.000000
214488326.000000,125896646.000000
214486017.000000,125911472.000000
214486017.000000,125911479.000000
214484636.000000,125920347.000000
214485800.000000,125929251.000000
214485800.000000,125929252.000000
214486630.000000,125935601.000000
214487373.000000,125960928.000000
214475286.000000,126129898.000000
214472727.000000,126147693.000000
214431320.000000,126338023.000000
214426255.000000,126355271.000000
214358186.000000,126537768.000000
214350718.000000,126554121.000000
214257368.000000,126725077.000000
214247649.000000,126740200.000000
214130921.000000,126896129.000000
214119148.000000,126909716.000000
213981414.000000,127047449.000000
213967834.000000,127059216.000000
213811888.000000,127175957.000000
213796778.000000,127185667.000000
213625819.000000,127279019.000000
213609467.000000,127286486.000000
213426962.000000,127354559.000000
213409726.000000,127359620.000000
213219389.000000,127401027.000000
213201600.000000,127403586.000000
213143643.000000,127407731.000000
213039703.000000,127415166.000000
213021769.000000,127414422.000000
213013467.000000,127414321.000000
213004597.000000,127412940.000000
212995696.000000,127414104.000000
212995695.000000,127414104.000000
212973040.000000,127417067.000000
212956701.000000,127418131.000000
195551579.000000,127418131.000000
195530676.000000,127416385.000000
195510882.000000,127413055.000000
195504643.000000,127412979.000000
195503190.000000,127412961.000000
195503187.000000,127412961.000000
195498330.000000,127412902.000000
195487936.000000,127414390.000000
195474101.000000,127415599.000000
195386033.000000,127418411.000000
195088817.000000,127427900.000000
195088804.000000,127427901.000000
195086826.000000,127427964.000000
195084856.000000,127428153.000000
195084844.000000,127428154.000000
194821418.000000,127453458.000000
194676998.000000,127467330.000000
194535382.000000,127490127.000000
194272485.000000,127532447.000000
194272479.000000,127532448.000000
194270517.000000,127532764.000000
193905068.000000,127615812.000000
193888306.000000,127618449.000000
193885594.000000,127618690.000000
193885590.000000,127618691.000000
193880739.000000,127619122.000000
193876014.000000,127620294.000000
193876010.000000,127620295.000000
193873281.000000,127620972.000000
193873276.000000,127620974.000000
193868555.000000,127622145.000000
193864067.000000,127624030.000000
193856363.000000,127627265.000000
193833797.000000,127634334.000000
171377440.000000,132411516.000000
161932858.000000,134420679.000000
161916814.000000,134423026.000000
161911072.000000,134423491.000000
161893637.000000,134424902.000000
161893634.000000,134424903.000000
161884690.000000,134425627.000000
161876307.000000,134428833.000000
161876303.000000,134428834.000000
161870085.000000,134431212.000000
161845813.000000,134437806.000000
161649809.000000,134470505.000000
161632274.000000,134472182.000000
161552704.000000,134474203.000000
161408010.000000,134477878.000000
161390421.000000,134477094.000000
161167545.000000,134451458.000000
161150229.000000,134448226.000000
160933109.000000,134391759.000000
160916413.000000,134386145.000000
160709298.000000,134299955.000000
160693548.000000,134292067.000000
160500474.000000,134177834.000000
160485978.000000,134167827.000000
160351339.000000,134060241.000000
160310720.000000,134027783.000000
160297762.000000,134015853.000000
160143744.000000,133852734.000000
160132576.000000,133839112.000000
160002816.000000,133656114.000000
159993657.000000,133641068.000000
159890683.000000,133441759.000000
159883711.000000,133425583.000000
159820315.000000,133244620.000000
159816174.000000,133226509.000000
159814255.000000,133219140.000000
159813247.000000,133210224.000000
159809486.000000,133201254.000000
159802148.000000,133177331.000000
158884113.000000,128605269.000000
156370884.000000,116088720.000000
156368556.000000,116069810.000000
156367615.000000,116049709.000000
156367614.000000,116049704.000000
156367387.000000,116044849.000000
156364877.000000,116032550.000000
156364936.000000,116032538.000000
156364957.000000,116029536.000000
156363858.000000,116029809.000000
156209078.000000,115407044.000000
156208619.000000,115405197.000000
156015178.000000,114788305.000000
155784936.000000,114184182.000000
155518728.000000,113595022.000000
155217522.000000,113022964.000000
155204260.000000,113001083.000000
155105977.000000,112838933.000000
154882411.000000,112470085.000000
154514611.000000,111938391.000000
154115457.000000,111429813.000000
154074453.000000,111383594.000000
153687667.000000,110947626.000000
153687663.000000,110947622.000000
153686399.000000,110946197.000000
153685052.000000,110944851.000000
153230330.000000,110490632.000000
153230321.000000,110490624.000000
153228994.000000,110489298.000000
152744902.000000,110060776.000000
152235882.000000,109662187.000000
152155896.000000,109606987.000000
151705330.000000,109296045.000000
151703781.000000,109294976.000000
151150530.000000,108960478.000000
150578138.000000,108659906.000000
149988684.000000,108394352.000000
149986921.000000,108393682.000000
149986913.000000,108393679.000000
149686495.000000,108279565.000000
149384306.000000,108164779.000000
149382501.000000,108164215.000000
149382486.000000,108164210.000000
148769029.000000,107972593.000000
148769020.000000,107972590.000000
148767200.000000,107972022.000000
148765362.000000,107971567.000000
148765350.000000,107971564.000000
148444571.000000,107892216.000000
148139605.000000,107816780.000000
147824747.000000,107758759.000000
147505662.000000,107699959.000000
147505658.000000,107699958.000000
147503800.000000,107699616.000000
147501923.000000,107699386.000000
147501917.000000,107699385.000000
146863964.000000,107621186.000000
146863953.000000,107621185.000000
146862093.000000,107620957.000000
146860222.000000,107620841.000000
146860207.000000,107620840.000000
146218710.000000,107581204.000000
146218703.000000,107581204.000000
146216813.000000,107581087.000000
146214925.000000,107581084.000000
146214917.000000,107581084.000000
145894468.000000,107580620.000000
145570304.000000,107580151.000000
145186047.000000,107602776.000000
144926792.000000,107618041.000000
144926784.000000,107618042.000000
144924911.000000,107618152.000000
144923050.000000,107618375.000000
144923046.000000,107618375.000000
144592469.000000,107657925.000000
144282979.000000,107694953.000000
144281103.000000,107695293.000000
144281097.000000,107695294.000000
144074910.000000,107732673.000000
143646837.000000,107810275.000000
143644999.000000,107810724.000000
143020624.000000,107963252.000000
143020618.000000,107963254.000000
143018795.000000,107963699.000000
143017008.000000,107964252.000000
143016999.000000,107964254.000000
142535733.000000,108113053.000000
142401133.000000,108154669.000000
142089810.000000,108271894.000000
141797859.000000,108381825.000000
141797847.000000,108381830.000000
141796094.000000,108382490.000000
141794382.000000,108383255.000000
141794373.000000,108383259.000000
141207588.000000,108645569.000000
141207579.000000,108645574.000000
141205873.000000,108646336.000000
140632613.000000,108945249.000000
140078396.000000,109278144.000000
139545234.000000,109643812.000000
139543760.000000,109644959.000000
139543755.000000,109644963.000000
139410352.000000,109748803.000000
139035062.000000,110040927.000000
139033658.000000,110042162.000000
139033643.000000,110042175.000000
138611827.000000,110413397.000000
138549731.000000,110468045.000000
138548381.000000,110469386.000000
138548370.000000,110469396.000000
138104655.000000,110910061.000000
138091005.000000,110923617.000000
138089763.000000,110925009.000000
138089759.000000,110925013.000000
137681887.000000,111382076.000000
137660548.000000,111405988.000000
137659394.000000,111407450.000000
137659387.000000,111407458.000000
137547239.000000,111549503.000000
137259924.000000,111913409.000000
137258838.000000,111914969.000000
137258833.000000,111914976.000000
137075254.000000,112178722.000000
136890585.000000,112444035.000000
136649663.000000,112838933.000000
136573245.000000,112964190.000000
136570423.000000,112968350.000000
136570174.000000,112968633.000000
136563428.000000,112979219.000000
136563008.000000,112980177.000000
136560590.000000,112984134.000000
136559928.000000,112984945.000000
136553583.000000,112995777.000000
136551796.000000,113000313.000000
136551421.000000,113001083.000000
136546589.000000,113010073.000000
136480254.000000,113122351.000000
136182186.000000,113626856.000000
136181549.000000,113628049.000000
136181537.000000,113628070.000000
136138162.000000,113709280.000000
135828140.000000,114289722.000000
135827552.000000,114290946.000000
135827551.000000,114290949.000000
135589684.000000,114786539.000000
135502964.000000,114967217.000000
135502430.000000,114968465.000000
135207788.000000,115656850.000000
135207779.000000,115656874.000000
135207260.000000,115658085.000000
134941578.000000,116361044.000000
134941164.000000,116362301.000000
134941161.000000,116362309.000000
134744846.000000,116958136.000000
134706410.000000,117074792.000000
134564255.000000,117578221.000000
134510485.000000,117768641.000000
134507882.000000,117776792.000000
134506329.000000,117781139.000000
134504338.000000,117785592.000000
134501557.000000,117795807.000000
134501497.000000,117795948.000000
134501481.000000,117796083.000000
134501040.000000,117797704.000000
134500501.000000,117802524.000000
134500498.000000,117802538.000000
134499392.000000,117812423.000000
134494070.000000,117837149.000000
134443164.000000,117994694.000000
134436858.000000,118010481.000000
134353857.000000,118183345.000000
134353480.000000,118184129.000000
134345099.000000,118198930.000000
134239099.000000,118359756.000000
134228801.000000,118373294.000000
134102108.000000,118518374.000000
134090082.000000,118530401.000000
134078374.000000,118540625.000000
133944987.000000,118657106.000000
133931449.000000,118667403.000000
133770628.000000,118773400.000000
133755826.000000,118781781.000000
133665134.000000,118825327.000000
133582183.000000,118865156.000000
133566398.000000,118871463.000000
133414679.000000,118920487.000000
133393713.000000,118924771.000000
133388761.000000,118925945.000000
133379823.000000,118926756.000000
133371477.000000,118930041.000000
133371474.000000,118930042.000000
133360325.000000,118934431.000000
133340575.000000,118940390.000000
115929557.000000,122671322.000000
115914550.000000,122673603.000000
115899888.000000,122674934.000000
115879823.000000,122676756.000000
115871474.000000,122680043.000000
115871472.000000,122680043.000000
115866087.000000,122682163.000000
115841249.000000,122689103.000000
115654848.000000,122721093.000000
115636050.000000,122722883.000000
115422193.000000,122727141.000000
115403344.000000,122726100.000000
115191259.000000,122698340.000000
115172773.000000,122694494.000000
115092254.000000,122671322.000000
114967219.000000,122635339.000000
114949509.000000,122628769.000000
114755113.000000,122539553.000000
114738584.000000,122530409.000000
114559712.000000,122413135.000000
114544736.000000,122401623.000000
114385407.000000,122258929.000000
114372320.000000,122245308.000000
114236108.000000,122080391.000000
114225205.000000,122064967.000000
114115179.000000,121881543.000000
114106709.000000,121864673.000000
114025338.000000,121666857.000000
114019482.000000,121648898.000000
113976237.000000,121472327.000000
113974067.000000,121455120.000000
113974022.000000,121455127.000000
113972654.000000,121446252.000000
113972558.000000,121437280.000000
113970045.000000,121429016.000000
113969668.000000,121425368.000000
113969650.000000,121425370.000000
113969016.000000,121420547.000000
113968756.000000,121415684.000000
113966165.000000,121403401.000000
113964565.000000,121399178.000000
113963586.000000,121395569.000000
113783079.000000,120672426.000000
113783078.000000,120672423.000000
113782707.000000,120670936.000000
113564113.000000,119948193.000000
113526106.000000,119841694.000000
113310846.000000,119238520.000000
113310842.000000,119238509.000000
113310320.000000,119237047.000000
113021937.000000,118539211.000000
112699661.000000,117856365.000000
112682957.000000,117825051.000000
112344980.000000,117191494.000000
112344976.000000,117191487.000000
112344266.000000,117190156.000000
111956611.000000,116542188.000000
111835789.000000,116361044.000000
111538486.000000,115915307.000000
111538481.000000,115915300.000000
111537628.000000,115914021.000000
111088327.000000,115307170.000000
110609790.000000,114723096.000000
110582396.000000,114692821.000000
110104198.000000,114164342.000000
110104196.000000,114164340.000000
110103170.000000,114163206.000000
109930081.000000,113989833.000000
109570775.000000,113629938.000000
109570759.000000,113629923.000000
109569688.000000,113628850.000000
109010629.000000,113121314.000000
108866897.000000,113003159.000000
108428536.000000,112642806.000000
108427339.000000,112641822.000000
107821225.000000,112191527.000000
107819953.000000,112190675.000000
107819938.000000,112190665.000000
107195025.000000,111772373.000000
107193745.000000,111771516.000000
106627208.000000,111431317.000000
106547735.000000,111383594.000000
106547721.000000,111383586.000000
106546412.000000,111382800.000000
106545075.000000,111382084.000000
106545061.000000,111382076.000000
105882149.000000,111027046.000000
105882150.000000,111027046.000000
105880786.000000,111026316.000000
105779007.000000,110978076.000000
105199841.000000,110703571.000000
105199832.000000,110703567.000000
105198469.000000,110702921.000000
105197061.000000,110702336.000000
105197051.000000,110702332.000000
104502557.000000,110413999.000000
104502543.000000,110413993.000000
104501106.000000,110413397.000000
104140080.000000,110283887.000000
103791822.000000,110158957.000000
103791809.000000,110158953.000000
103790377.000000,110158439.000000
103788923.000000,110157997.000000
103788912.000000,110157993.000000
103404127.000000,110040927.000000
103067993.000000,109938662.000000
102678336.000000,109840720.000000
102337206.000000,109754975.000000
102337185.000000,109754970.000000
102335696.000000,109754596.000000
102334185.000000,109754294.000000
102334171.000000,109754291.000000
101964255.000000,109680397.000000
101595249.000000,109606684.000000
100848436.000000,109495282.000000
100846898.000000,109495129.000000
100846896.000000,109495129.000000
100715634.000000,109482093.000000
100097056.000000,109420659.000000
100095524.000000,109420582.000000
100095504.000000,109420581.000000
99699162.000000,109400786.000000
99342920.000000,109382994.000000
98965382.000000,109382687.000000
98589375.000000,109382380.000000
98589365.000000,109382380.000000
98587844.000000,109382379.000000
98586315.000000,109382453.000000
98586309.000000,109382453.000000
98185937.000000,109401795.000000
97833648.000000,109418814.000000
97832111.000000,109418964.000000
97832099.000000,109418965.000000
97083701.000000,109492061.000000
97083692.000000,109492062.000000
97082147.000000,109492213.000000
97015796.000000,109502000.000000
96336691.000000,109602170.000000
96336680.000000,109602172.000000
96335154.000000,109602397.000000
96333642.000000,109602697.000000
96333639.000000,109602697.000000
95595976.000000,109748803.000000
95595971.000000,109748804.000000
95594467.000000,109749102.000000
95592992.000000,109749470.000000
95592975.000000,109749474.000000
94884467.000000,109926334.000000
94884057.000000,109924692.000000
94877255.000000,109927767.000000
94876934.000000,109927893.000000
94873852.000000,109928210.000000
94868342.000000,109929658.000000
94866422.000000,109930162.000000
94866418.000000,109930163.000000
94861712.000000,109931400.000000
94857250.000000,109933347.000000
94852653.000000,109934943.000000
94852502.000000,109934507.000000
94830629.000000,109941092.000000
94665610.000000,109970029.000000
94647727.000000,109971863.000000
94553364.000000,109974770.000000
94444249.000000,109978131.000000
94426297.000000,109977401.000000
94224000.000000,109954646.000000
94206335.000000,109951370.000000
94009324.000000,109900055.000000
93992301.000000,109894296.000000
93804608.000000,109815469.000000
93788575.000000,109807345.000000
93728899.000000,109771540.000000
93614018.000000,109702613.000000
93599301.000000,109692288.000000
93494505.000000,109606987.000000
93441421.000000,109563779.000000
93428326.000000,109551466.000000
93376530.000000,109495282.000000
93290343.000000,109401795.000000
93279132.000000,109387742.000000
93204571.000000,109279222.000000
93163856.000000,109219963.000000
93154760.000000,109204461.000000
93084970.000000,109063312.000000
93064529.000000,109021972.000000
93057732.000000,109005331.000000
93043048.000000,108960478.000000
93004580.000000,108842982.000000
93000697.000000,108824160.000000
92999013.000000,108817058.000000
92998202.000000,108808122.000000
92989907.000000,108787049.000000
92984089.000000,108767949.000000
92982286.000000,108759745.000000
89298618.000000,92001382.000000
89295871.000000,91981257.000000
89295169.000000,91968495.000000
89294676.000000,91959532.000000
89289554.000000,91945026.000000
89283562.000000,91920407.000000
89260256.000000,91752621.000000
89259059.000000,91734684.000000
89259989.000000,91539899.000000
89261358.000000,91521973.000000
89289998.000000,91329320.000000
89293903.000000,91311773.000000
89349670.000000,91125146.000000
89356028.000000,91108344.000000
89437795.000000,90931536.000000
89446479.000000,90915812.000000
89552568.000000,90752453.000000
89563410.000000,90738113.000000
89691666.000000,90591517.000000
89704439.000000,90578866.000000
89852243.000000,90452022.000000
89866685.000000,90441318.000000
90031048.000000,90336792.000000
90046867.000000,90328251.000000
90224428.000000,90248182.000000
90241302.000000,90241980.000000
90397412.000000,90196949.000000
90414272.000000,90194091.000000
90423080.000000,90192331.000000
90432038.000000,90191838.000000
90462061.000000,90181236.000000
90477813.000000,90176801.000000
90599673.000000,90150899.000000
103345475.000000,87441696.000000
103366284.000000,87439058.000000
103367332.000000,87439013.000000
103386334.000000,87438200.000000
103392144.000000,87437039.000000
103393877.000000,87436693.000000
103393883.000000,87436691.000000
103398643.000000,87435740.000000
103403208.000000,87434065.000000
103404973.000000,87433568.000000
103411482.000000,87431478.000000
103687321.000000,87355180.000000
103687325.000000,87355179.000000
103690986.000000,87354166.000000
103694502.000000,87352718.000000
103968071.000000,87240048.000000
103968078.000000,87240045.000000
103971588.000000,87238599.000000
104236214.000000,87090053.000000
104334909.000000,87017739.000000
104477933.000000,86912944.000000
104477937.000000,86912941.000000
104481006.000000,86910692.000000
104483780.000000,86908092.000000
104483784.000000,86908088.000000
104591699.000000,86806913.000000
104702393.000000,86703134.000000
104897149.000000,86470404.000000
105062432.000000,86215896.000000
105195834.000000,85943320.000000
105295407.000000,85656653.000000
105359702.000000,85360074.000000
105387779.000000,85057907.000000
105379230.000000,84754559.000000
105338768.000000,84485023.000000
105337487.000000,84471706.000000
105337478.000000,84471489.000000
105337478.000000,84471486.000000
105337270.000000,84466629.000000
105334810.000000,84454320.000000
105325191.000000,84428105.000000
105320236.000000,84410908.000000
101523385.000000,66548124.000000
101493589.000000,66407948.000000
101491027.000000,66388675.000000
101490203.000000,66373695.000000
101489710.000000,66364731.000000
101484589.000000,66350229.000000
101478596.000000,66325608.000000
101455289.000000,66157823.000000
101454092.000000,66139885.000000
101455022.000000,65945103.000000
101456391.000000,65927178.000000
101485030.000000,65734526.000000
101488935.000000,65716978.000000
101544702.000000,65530354.000000
101551065.000000,65513539.000000
101632824.000000,65336753.000000
101641515.000000,65321017.000000
101747600.000000,65157666.000000
101758442.000000,65143326.000000
101886693.000000,64996737.000000
101899466.000000,64984085.000000
102047278.000000,64857237.000000
102061720.000000,64846533.000000
102226076.000000,64742014.000000
102241896.000000,64733473.000000
102419464.000000,64653404.000000
102436337.000000,64647203.000000
102456954.000000,64641256.000000
102592550.000000,64602144.000000
102609298.000000,64599306.000000
102609295.000000,64599293.000000
102618099.000000,64597534.000000
102627063.000000,64597041.000000
102635528.000000,64594052.000000
102635532.000000,64594051.000000
102657080.000000,64586442.000000
102672836.000000,64582005.000000
120679695.000000,60754531.000000
120698919.000000,60751971.000000
120706450.000000,60751553.000000
120722988.000000,60750637.000000
120727749.000000,60749623.000000
120730511.000000,60749035.000000
120730514.000000,60749034.000000
120735266.000000,60748022.000000
120741156.000000,60745776.000000
120753598.000000,60741757.000000
120879914.000000,60708091.000000
121126349.000000,60642411.000000
121126360.000000,60642408.000000
121128696.000000,60641785.000000
121513194.000000,60506913.000000
121886196.000000,60342903.000000
122245497.000000,60150725.000000
122588974.000000,59931514.000000
122590903.000000,59930063.000000
122590913.000000,59930056.000000
122912652.000000,59688029.000000
122914597.000000,59686566.000000
123113124.000000,59511801.000000
123218618.000000,59418933.000000
123218621.000000,59418930.000000
123220441.000000,59417328.000000
123504699.000000,59125392.000000
123765691.000000,58812482.000000
123876393.000000,58656854.000000
124000475.000000,58482416.000000
124000482.000000,58482405.000000
124001875.000000,58480447.000000
124211856.000000,58131251.000000
124394391.000000,57766956.000000
124504203.000000,57497981.000000
124525158.000000,57446652.000000
124526437.000000,57447174.000000
124526541.000000,57446696.000000
124525340.000000,57446205.000000
124535731.000000,57420754.000000
124542774.000000,57406237.000000
124542823.000000,57406150.000000
124542824.000000,57406148.000000
124545223.000000,57401917.000000
124546942.000000,57397367.000000
124549011.000000,57392957.000000
124549171.000000,57393032.000000
124553306.000000,57384059.000000
124703285.000000,57110982.000000
124709263.000000,57101184.000000
124915094.000000,56796036.000000
124921944.000000,56786817.000000
125154703.000000,56501682.000000
125162364.000000,56493125.000000
125420123.000000,56230366.000000
125428519.000000,56222553.000000
125709145.000000,55984347.000000
125718225.000000,55977327.000000
126019358.000000,55765675.000000
126029045.000000,55759506.000000
126348202.000000,55576153.000000
126358411.000000,55570891.000000
126542119.000000,55486579.000000
126692946.000000,55417358.000000
126703585.000000,55413051.000000
127050708.000000,55290619.000000
127061697.000000,55287298.000000
127418526.000000,55196983.000000
127429760.000000,55194678.000000
127594395.000000,55168664.000000
127756069.000000,55143118.000000
127781189.000000,55141692.000000
127784385.000000,55141831.000000
127784391.000000,55141830.000000
127793353.000000,55142219.000000
127802064.000000,55140076.000000
127802069.000000,55140076.000000
127810749.000000,55137941.000000
127832311.000000,55134585.000000
145470346.000000,53938200.000000
145494963.000000,53938943.000000
145496686.000000,53939165.000000
145496693.000000,53939165.000000
145505592.000000,53940311.000000
145514458.000000,53938913.000000
145514459.000000,53938913.000000
145550186.000000,53933280.000000
145561279.000000,53932031.000000
145569170.000000,53931496.000000
145587705.000000,53927546.000000
145594294.000000,53926325.000000
145649472.000000,53917625.000000
145661423.000000,53913785.000000
145665774.000000,53911600.000000
145669306.000000,53910156.000000
145675553.000000,53908825.000000
145683458.000000,53904563.000000
145689369.000000,53902391.000000
145691735.000000,53901307.000000
146055728.000000,53762409.000000
146055733.000000,53762407.000000
146058175.000000,53761475.000000
146441279.000000,53577600.000000
146443520.000000,53576286.000000
146443525.000000,53576283.000000
146805591.000000,53363928.000000
146805595.000000,53363926.000000
146807831.000000,53362614.000000
147155310.000000,53117997.000000
147481327.000000,52845431.000000
147483174.000000,52843607.000000
147483180.000000,52843601.000000
147781787.000000,52548620.000000
147781793.000000,52548614.000000
147783639.000000,52546790.000000
147955005.000000,52346835.000000
148058463.000000,52226117.000000
148058468.000000,52226110.000000
148060168.000000,52224127.000000
148309011.000000,51879662.000000
148528459.000000,51515763.000000
148703653.000000,51161897.000000
148707591.000000,51155054.000000
148707490.000000,51154998.000000
148709856.000000,51150744.000000
148712542.000000,51146688.000000
148713711.000000,51144140.000000
148717501.000000,51137972.000000
148811172.000000,50999352.000000
148822907.000000,50984522.000000
148963329.000000,50832115.000000
148977152.000000,50819206.000000
148993855.000000,50805808.000000
149138806.000000,50689533.000000
149154405.000000,50678840.000000
149204166.000000,50649963.000000
149333645.000000,50574824.000000
149350661.000000,50566589.000000
149543462.000000,50490568.000000
149561508.000000,50484976.000000
149763520.000000,50438668.000000
149782210.000000,50435839.000000
149957169.000000,50422674.000000
149974197.000000,50423350.000000
149974198.000000,50423268.000000
149983174.000000,50423378.000000
149992045.000000,50424759.000000
150000947.000000,50423595.000000
150000950.000000,50423595.000000
150016473.000000,50421565.000000
150023333.000000,50420668.000000
150039774.000000,50419604.000000
Z" /> 
</g>
</g>
</g> 
</svg>
